<svg xmlns="http://www.w3.org/2000/svg" width="466" height="459" viewBox="0 0 466 459">
  <path fill="#000"  opacity=".04" fill-rule="evenodd" d="M198.094818,103.634811 C139.577393,12.1011887 270.509949,-23 291.195221,16.7715225 C246.801056,30.0981441 237.562824,63.4261799 257.453552,61.1441956 C284.577576,58.0323639 274.612712,30.0981441 316.620728,16.7715225 C345.261536,7.68551331 364.834228,32.9095062 384.988633,58.2975992 L386.412389,60.0895276 C389.499831,63.9707022 392.606191,67.8369222 395.765991,71.5660324 C259.594482,63.9261017 271.925415,99.0536559 292.320251,99.0536559 C312.715088,99.0536559 371.401123,71.5660324 411.944458,80.7569504 C440.214233,95.3455963 416.421936,127.707916 446.916962,151.22197 L446.913736,151.219261 L446.399312,150.859728 C429.039431,138.974481 367.792206,122.080923 324.924748,126.827759 L323.618286,126.979858 C280.26535,132.277054 288.409027,151.22197 312.345764,151.22197 C336.282501,151.22197 430.607971,144.541382 450.271606,165.817879 C464.429424,181.136956 464.709188,197.662353 464.928047,214.711579 L464.946441,216.133545 L464.946441,216.133545 L464.966329,217.557849 C464.973405,218.032997 464.981027,218.50852 464.989489,218.984403 L465.017698,220.413119 C465.122117,225.179009 465.340295,229.979468 465.968384,234.799866 C451.505737,208.79921 383.68219,188.71228 334.711487,184.430511 C285.740784,180.148743 283.973511,198.012985 344.02182,198.012985 C404.070129,198.012985 457.42041,241.957855 463.710571,250.840622 C470.000732,259.723389 457.09729,289.382935 457.42041,314.651764 C449.816528,298.407883 392.889587,255.75412 344.02182,237.545853 C295.154053,219.337585 306.230682,261.053146 340.713745,255.75412 C375.196808,250.455093 452.203064,314.651764 457.42041,330.895645 C462.637756,347.139526 452.203064,366.041962 440.214233,374.765503 C437.15686,344.621399 347.091583,285.518494 334.711487,304.039886 C322.33139,322.561279 421.985168,339.086792 428.663208,385.119141 C430.978191,401.076532 415.619422,405.664732 411.944458,412.456268 C405.018239,425.256302 411.944458,442.939697 404.341797,442.939697 C400.516974,435.602599 388.882023,438.028538 377.321307,440.766919 L375.431495,441.216273 C366.627408,443.311958 358.117394,445.289239 353.412415,442.939697 C342.210083,437.345551 327.088531,356.812408 312.345764,366.433014 C297.602997,376.053619 313.267883,413.243225 340.713745,456.279877 C332.002147,456.54445 318.066439,460.266644 312.345764,456.279877 C265.011627,423.29248 278.264374,337.581024 270.509949,314.651764 C260.749676,285.791361 249,401.686401 292.320251,456.279877 C283.003601,452.699921 249.731567,459.019043 231,442.939697 C207.834979,423.054635 205.870329,363.241536 211.490112,322.324982 C216.717909,284.262406 229.415299,263.757115 214.320801,275.855804 C183,300.960358 193.51947,385.64682 211.490112,429.739594 C202.663757,429.739594 144.258362,425.556 131.600952,390.157257 C118.943542,354.758514 153.943665,276.119263 169.434265,261.053146 C184.924866,245.98703 175.906281,234.402496 161.657074,241.957855 C147.407867,249.513214 99.2749634,341.523834 120.544388,385.119141 C105.750366,375.002838 54.8477783,330.894806 54.8477783,308.30246 C54.8477783,285.710114 161.657074,194.694672 139.577393,194.694672 C127.052844,194.694672 109.922196,213.872103 88.6119385,238.237778 C72.3540808,256.826651 50.3937455,276.596828 45.5141907,304.039886 C32.9360046,298.108307 -11.0118408,252.806039 12.8878479,221.107312 C36.7875366,189.408585 111.683777,176.302292 111.683777,157.000305 C111.683777,137.698318 27.963913,165.817879 5.18922424,209.5 C-9.98596191,164.186523 12.6075134,128.611847 27.963913,119.286224 C43.3203125,109.960602 111.683777,128.611847 111.683777,115.120285 C111.683777,101.628723 62.7725677,95.7731476 30.7575684,106.205872 C30.7575684,82.4478302 96.5688171,68.1932373 120.544388,68.1932373 C144.519958,68.1932373 168.812561,77.5710297 175.906281,106.205872 C183,134.840714 216.44696,132.34144 198.094818,103.634811 Z M223.663381,238.237778 C221.207779,244.984491 223.844981,252.138186 229.553738,254.216004 C235.262495,256.293822 241.881016,252.508934 244.336619,245.762222 C246.792221,239.015509 244.155019,231.861814 238.446262,229.783996 C232.737505,227.706178 226.118984,231.491066 223.663381,238.237778 Z M198.500973,182.275378 C188.981794,190.262918 185.293975,201.539676 190.264,207.462721 C195.234025,213.385767 206.979847,211.712163 216.499027,203.724622 C226.018206,195.737082 229.706025,184.460324 224.736,178.537279 C219.765975,172.614233 208.020153,174.287837 198.500973,182.275378 Z M167.263518,148.151922 C158.017315,149.782278 151.299236,155.513076 152.258268,160.952019 C153.217301,166.390962 161.490279,169.478433 170.736482,167.848078 C179.982685,166.217722 186.700764,160.486924 185.741732,155.047981 C184.782699,149.609038 176.509721,146.521567 167.263518,148.151922 Z M244,140.339746 C237.782196,143.929597 234.980246,150.717074 237.74167,155.5 C240.503093,160.282926 247.782196,161.250105 254,157.660254 C260.217804,154.070403 263.019754,147.282926 260.25833,142.5 C257.496907,137.717074 250.217804,136.749895 244,140.339746 Z"/>
</svg>
