<svg xmlns="http://www.w3.org/2000/svg" width="386" height="990" viewBox="0 0 386 990">
  <path fill="#93C90E" fill-rule="evenodd" d="M221.687403,0 L215.974738,1.93903246 L140.908673,68.950403 L121.391842,94.5097272 L110.355018,119.361167 L94.3154167,143.667923 L85.7723536,152.870422 L60.8510181,192.461976 L49.9901406,213.441471 L10.9259675,335.122133 L13.6587307,339.590782 L37.0057017,344.206311 L77.6462733,357.747918 L120.821287,376.267157 L153.761915,393.904091 L158.22058,397.051831 L102.721181,376.77104 L63.3396937,365.489768 L14.9625648,356.721792 L10.8954566,358.451723 L6.77139454,377.732907 L0,436.051781 L3.28806227,486.604326 L8.85935985,516.935241 L15.4537909,541.936622 L74.9277486,543.26263 L148.007551,562.578494 L156.822162,570.496805 L66.2850164,555.912751 L24.0416034,557.722243 L14.352346,566.959422 L12.7495047,640.539635 L19.0571329,650.421458 L117.15794,653.117336 L111.509348,657.863426 L17.4888706,664.337408 L19.1618871,692.73235 L27.6540987,719.740084 L50.4457706,764.516331 L68.4523102,785.754908 L105.12646,801.758811 L153.483248,817.967735 L186.927306,826.473569 L187.581257,829.234727 L200.611462,974.779462 L213.588782,988.086468 L221.427042,988.360849 L225.937576,990 L223.658409,980.138577 L201.266431,829.433628 L205.656955,824.539637 L214.68921,823.817472 L266.775452,814.280411 L321.929061,776.79007 L332.163447,763.380044 L339.451493,750.077119 L333.029958,734.921861 L320.507251,730.728614 L245.342534,720.376568 L256.811596,714.621691 L349.111257,725.966204 L365.751923,674.565014 L367.7331,656.9189 L374.983517,622.68748 L374.003099,618.290232 L361.639049,611.603069 L296.347672,596.372331 L231.541419,596.910895 L239.46511,593.571393 L326.570792,579.976746 L334.149709,579.661564 L368.364677,583.75689 L375.483896,576.616844 L383.002809,553.661597 L386,508.624228 L386,482.104057 L385.009411,478.220892 L384.399193,447.964438 L371.039469,347.684534 L365.783451,340.456767 L346.553423,337.107066 L315.321408,337.892471 L310.448811,337.398788 L301.241627,335.309814 L251.506761,335.501575 L251.096897,333.893025 L267.139549,329.321356 L305.059562,322.813714 L352.575266,322.320031 L371.769698,319.06417 L373.522043,303.826292 L374.029541,266.486912 L372.4745,251.752917 L372.761303,240.105462 L370.444506,219.48603 L356.614914,187.487404 L334.041904,150.632528 L328.763511,143.860704 L284.72097,164.484217 L278.45504,165.576644 L281.399346,161.706739 L315.444469,135.876093 L318.707106,126.428792 L305.772501,104.135529 L272.385397,63.0109048 L261.549945,43.5685599 L242.75724,18.5661593 L229.774836,6.0394588 L221.687403,0 Z M74.8547609,197.30455 L90.5124577,195.919994 L160.33573,247.477368 L157.39515,250.771345 L74.8547609,197.30455 Z M277.501345,265.086982 L319.424101,243.834823 L334.044034,240.70662 L346.34842,250.078081 L335.620793,249.065688 L322.185959,251.202737 L271.552572,271.476891 L277.501345,265.086982 Z M105.124336,333.802891 L65.1564327,320.34098 L40.1476919,312.581097 L56.0871254,309.251949 L115.557588,331.519437 L117.61482,342.697895 L105.124336,333.802891 Z M96.560305,507.387145 L38.2984649,499.602017 L28.4892863,496.797605 L27.3567536,490.499467 L94.0123607,502.067291 L148.900006,519.331231 L138.591211,521.269737 L96.560305,507.387145 Z M245.304929,547.18047 L325.659824,520.233688 L360.790369,513.254864 L349.388957,524.680888 L324.698945,527.988959 L243.254037,553.389999 L245.304929,547.18047 Z" opacity=".32"/>
</svg>
