<svg xmlns="http://www.w3.org/2000/svg" width="557" height="770" viewBox="0 0 557 770">
  <polygon fill="#000"  opacity=".04"  fill-rule="evenodd" points="384.059 .755 356.898 42.825 319.244 118.13 305.57 176.66 301.382 274.735 300.879 275.251 275.63 186.81 249.904 121.309 224.106 77.67 181.589 31.566 178.479 29.647 177.122 30.716 183.462 42.242 193.242 63.944 211.323 94.635 211.785 95.74 245.478 197.696 265.499 245.617 295.79 305.861 297.793 327.223 173.344 114.234 141.874 80.92 135.583 78.832 135.076 85.203 182.788 180.775 239.68 272.413 283.52 322.744 296.467 347.425 293.421 368.079 288.927 363.107 274.425 340.753 97.488 133.23 94.654 132.334 96.185 136.752 153.688 236.665 213.436 314.187 287.538 374.05 290.722 377.857 286.36 403.228 120.705 249.22 56.63 198.522 58.584 204.137 99.507 263.7 123.151 290.488 158.96 324.838 232.382 382.057 277.081 409.685 282.844 417.692 280.677 429.348 275.68 430.764 107.372 308.904 28.384 262.786 22.263 259.95 43.571 290.946 134.199 367.514 221.472 422.803 268.018 441.26 276.437 452.953 276.518 461.915 274.238 476.761 252.312 457.17 147.777 387.787 26.877 329.088 8.962 322.286 2.832 322.753 5.064 328.353 24.138 345.664 72.12 381.163 135.254 417.499 260.353 476.345 269.986 497.089 263.101 494.577 136.628 436.509 59.272 408.1 8.492 395.099 1.269 395.626 .726 397.241 13.508 408.523 128.108 472.526 220.073 498.005 263.66 504.371 268.51 507.225 265.592 514.523 260.217 516.815 64.451 496.808 27.695 501.164 23.236 504.346 26.754 508.719 87.062 523.553 156.525 530.334 212.674 530.942 265.22 526.451 266.093 527.969 262.839 531.434 196.709 552.16 111.405 594.67 106.762 598.258 107.597 599.865 190.242 583.192 265.306 541.441 265.354 548.208 259.17 636.705 260.309 646.076 258.358 740.278 259.945 764.673 262.115 768.445 274.886 769.755 277.558 746.608 272.047 639.671 274.593 552.054 277.212 532.029 277.171 522.33 284.079 525.125 349.365 572.14 393.027 599.128 434.531 611.009 446.231 612.365 447.837 610.583 388.861 565.224 344.813 538.003 287.03 515.883 284.062 515.546 278.1 510.951 283.406 501.781 296.222 502.753 345.772 518.415 416.09 530.593 495.027 531.915 521.676 528.623 522.478 527.731 504.031 517.279 442.993 501.286 368.234 489.475 280.338 491.213 282.55 476.109 350.341 472.878 414.882 464.366 473.024 452.251 549.602 442.743 556.543 441.312 556.726 439.107 537.939 432.836 454.033 427.958 409.383 430.485 343.039 445.623 282.418 466.517 290.593 434.4 296.486 429.987 340.59 426.538 395.131 416.926 527.137 381.528 555.558 371.458 555.263 369.606 551.003 368.079 462.112 368.78 411.007 377.745 356.335 394.83 293.543 422.372 296.251 402.663 300.161 387.793 305.299 384.308 320.514 382.851 400.1 349.618 530.091 312.614 533.883 309.402 529.872 306.415 517.993 305.349 426.498 316.237 349.668 341.855 300.831 372.736 303.691 346.123 311.016 334.008 392.084 289.737 511.278 239.508 527.878 229.277 527.256 227.619 522.174 227.009 468.671 232.957 381.539 268.531 312.426 319.63 307.821 322.332 305.819 320.031 491.092 140.891 490.48 139.241 484.024 139.761 458.59 152.929 417.678 178.803 368.759 224.366 342.59 253.746 330.367 269.847 330.029 269.46 445.453 70.516 434.85 75.768 397.325 117.386 359.358 173.822 320.254 255.634 313.237 277.174 313.496 269.359 384.336 11.697 386.193 1.671"/>
</svg>
